<?xml version="1.0" encoding="utf-8"?>
<!-- Generator: Adobe Illustrator 26.0.1, SVG Export Plug-In . SVG Version: 6.00 Build 0)  -->
<svg version="1.1" id="Ebene_1" xmlns="http://www.w3.org/2000/svg" xmlns:xlink="http://www.w3.org/1999/xlink" x="0px" y="0px"
	 viewBox="0 0 1280 207.1" style="enable-background:new 0 0 1280 207.1;" xml:space="preserve">
<style type="text/css">
	.st0{fill:#818181;}
</style>
<path class="st0" d="M167.4,16.1C148.1,5.8,129.2,0,105.6,0C46.6,0,0,42.6,0,103.6c0,65,46.6,103.6,105.6,103.6
	c21,0,43.1-8.3,61-18.7l-9.8-17.5c-15.5,8.9-33.7,15.5-51.2,15.5c-46.3,0-79.1-36.8-79.1-82.8c0-46,32.8-82.8,79.1-82.8
	c19.3,0,36,4,51.5,15L167.4,16.1L167.4,16.1z M213.7,103.6c0-46,32.8-82.8,79.1-82.8c46.3,0,79.1,36.8,79.1,82.8
	c0,46-32.8,82.8-79.1,82.8C246.5,186.4,213.7,149.6,213.7,103.6L213.7,103.6z M187.3,103.6c0,65,46.6,103.6,105.6,103.6
	c59,0,105.6-42.6,105.6-103.6C398.4,38.5,351.8,0,292.8,0C233.9,0,187.3,42.6,187.3,103.6L187.3,103.6z M421.4,203.1l23.9,4
	l27.3-170.3h0.6L531,203.1h23.6l61.8-166.3h0.6l25.3,170.3l24.2-4L634.8,4h-26.8l-64.7,168L483.2,4h-25.6L421.4,203.1L421.4,203.1z
	 M725.7,23h30.5c53.2,0,87.4,29.3,87.4,79.4c0,54.7-36.2,81.7-93.2,81.7H724L725.7,23L725.7,23z M699.3,203.1h54.9
	c64.4,0,114.2-34.8,114.2-102.1C868.4,52.4,837.3,4,760.8,4H701L699.3,203.1L699.3,203.1z M919,103.6c0-46,32.8-82.8,79.1-82.8
	c46.3,0,79.1,36.8,79.1,82.8c0,46-32.8,82.8-79.1,82.8C951.8,186.4,919,149.6,919,103.6L919,103.6z M892.5,103.6
	c0,65,46.6,103.6,105.6,103.6c59,0,105.6-42.6,105.6-103.6c0-65-46.6-103.6-105.6-103.6C939.1,0,892.5,42.6,892.5,103.6L892.5,103.6
	z M1137.6,203.1h24.7l1.7-199h-24.7L1137.6,203.1L1137.6,203.1z M1261.3,207.1l18.7-16.4l-86-89.5l85.4-86L1262.2,0l-98.9,101.8
	L1261.3,207.1L1261.3,207.1z"/>
</svg>
