<?xml version="1.0" encoding="utf-8"?>
<!-- Generator: Adobe Illustrator 24.0.0, SVG Export Plug-In . SVG Version: 6.00 Build 0)  -->
<svg version="1.1" id="Ebene_1" xmlns="http://www.w3.org/2000/svg" xmlns:xlink="http://www.w3.org/1999/xlink" x="0px" y="0px"
	 width="236.3px" height="50px" viewBox="0 0 236.3 50" style="enable-background:new 0 0 236.3 50;" xml:space="preserve">
<style type="text/css">
	.st0{fill:#818181;}
	.st1{fill:url(#path3112_1_);stroke:#818181;stroke-width:0.1425;stroke-linecap:square;stroke-miterlimit:2.8267;}
	.st2{fill:#FFFFFF;}
	.st3{fill:url(#path22-7_1_);stroke:#818181;stroke-width:0.1182;stroke-miterlimit:1.9975;}
	.st4{fill:url(#path26-4_1_);}
	.st5{fill:url(#path26-4-9_1_);}
	.st6{fill:#FFFFFF;stroke:#818181;stroke-width:0.1182;stroke-miterlimit:1.9975;}
</style>
<path class="st0" d="M65.3,36.7c3.5,0.2,9.3,0.3,12.6,0.3c14.5,0,16.2,0,16.2-7.9c0-6.2-1.8-6.7-9.5-6.9l-8.9-0.3
	c-4.1-0.1-4.2-0.6-4.2-2.4c0-1.9,0.5-1.9,10.3-1.9c1.9,0,7.8,0.1,10.9,0.2c0.3,0,0.5-0.2,0.5-0.5v-4.1c0-0.3-0.2-0.5-0.5-0.5
	c-3.1-0.2-8.1-0.3-11.8-0.3c-14.2,0-16.5,0.3-16.5,7.6c0,6.3,1.4,7.1,10.5,7.4l8.2,0.3c3.8,0.1,3.9,0.6,3.9,2c0,2-0.2,2.1-9.2,2.1
	c-4.2,0-8.6-0.2-12.5-0.3c-0.3,0-0.5,0.1-0.5,0.5v4.3C64.8,36.5,65,36.6,65.3,36.7 M218.6,27.9H208l4.9-9.7h0.9L218.6,27.9z
	 M187.5,24.5v0.3c0,6.1-0.5,6.3-8.5,6.3h-6.6v-13h6.6C187,18.2,187.5,18.4,187.5,24.5 M153,24.5v0.3c0,6.7-0.3,6.8-8.1,6.8
	s-8.1-0.1-8.1-6.8v-0.3c0-6.7,0.3-6.8,8.1-6.8S153,17.8,153,24.5 M230.4,36l-11.5-23c-0.1-0.3-0.3-0.4-0.6-0.4h-10.2
	c-0.3,0-0.5,0.1-0.6,0.4L196,36c-0.2,0.4,0,0.6,0.4,0.6h6.6c0.3,0,0.5-0.1,0.6-0.4l1.7-3.4H221l1.7,3.4c0.1,0.3,0.3,0.4,0.6,0.4h6.6
	C230.4,36.6,230.5,36.4,230.4,36 M179,12.7h-13.3c-0.3,0-0.5,0.2-0.5,0.5v22.9c0,0.3,0.2,0.5,0.5,0.5H179c14.2,0,16-0.7,16-11.9
	v-0.2C195.1,13.4,193.2,12.7,179,12.7 M127.7,36l-13.2-12.9l12.4-9.8c0.4-0.3,0.2-0.6-0.2-0.6h-8.1c-0.2,0-0.4,0.1-0.6,0.2L105.3,23
	v-9.9c0-0.3-0.2-0.5-0.5-0.5h-6.2c-0.3,0-0.5,0.2-0.5,0.5V36c0,0.3,0.2,0.5,0.5,0.5h6.2c0.3,0,0.5-0.2,0.5-0.5v-5.8l3.8-3l9.1,9
	c0.2,0.2,0.4,0.3,0.6,0.3h8.7C127.9,36.6,128,36.3,127.7,36 M129.1,24.5v0.3c0,11.6,1.9,12.3,15.8,12.3c13.9,0,15.8-0.7,15.8-12.3
	v-0.3c0-11.6-1.9-12.3-15.8-12.3S129.1,12.9,129.1,24.5 M73.1,7.2l3,3.5c0.2,0.2,0.3,0.3,0.6,0.3H83c0.3,0,0.4-0.1,0.6-0.3l3-3.5
	c0.3-0.3,0.2-0.6-0.3-0.6H82c-0.3,0-0.4,0.1-0.6,0.3l-1.3,1.9h-0.7l-1.3-1.9c-0.2-0.2-0.3-0.3-0.6-0.3h-4.3
	C73,6.6,72.9,6.9,73.1,7.2"/>
<g id="g3942" transform="matrix(0.70666668,0,0,0.70665873,0.73333458,131.49587)">
	<g id="g3935">
		
			<linearGradient id="path3112_1_" gradientUnits="userSpaceOnUse" x1="364.7775" y1="189.2467" x2="421.7112" y2="189.2467" gradientTransform="matrix(-2.030205e-03 -0.5884 0.5848 -2.017376e-03 -74.8076 97.8831)">
			<stop  offset="0" style="stop-color:#99A2A7"/>
			<stop  offset="0.4758" style="stop-color:#98A3A8"/>
			<stop  offset="0.5352" style="stop-color:#E6E6E6"/>
			<stop  offset="1" style="stop-color:#E6E6E6"/>
		</linearGradient>
		<path id="path3112" class="st1" d="M34.9-184.1c18.5-0.1,33.5,14.9,33.5,33.3s-14.9,33.5-33.3,33.5c-18.5,0.1-33.5-14.9-33.5-33.3
			C1.5-169,16.4-184.1,34.9-184.1L34.9-184.1z"/>
		<g id="g24" transform="matrix(1.7797133,0,0,-1.779639,190.00214,430.60606)">
			<path id="path26" class="st0" d="M-87.1,309.8c-4.5,0-8.7,1.8-11.9,4.9c-3.2,3.2-4.9,7.4-4.9,11.9s1.8,8.7,4.9,11.9
				c3.2,3.2,7.4,4.9,11.9,4.9s8.7-1.8,11.9-4.9c3.2-3.2,4.9-7.4,4.9-11.9s-1.8-8.7-4.9-11.9C-78.3,311.5-82.6,309.8-87.1,309.8"/>
		</g>
		<g id="g28" transform="matrix(1.7797133,0,0,-1.779639,190.00214,418.8786)">
			<path id="path30" class="st2" d="M-87.1,304.6c-4.1,0-8,1.6-11,4.5c-2.9,2.9-4.5,6.8-4.5,11c0,4.1,1.6,8,4.5,11
				c2.9,2.9,6.8,4.5,11,4.5s8-1.6,11-4.5c2.9-2.9,4.5-6.8,4.5-11c0-4.1-1.6-8-4.5-11C-79.1,306.2-83,304.6-87.1,304.6"/>
		</g>
	</g>
	<g id="g4188">
		
			<linearGradient id="path22-7_1_" gradientUnits="userSpaceOnUse" x1="28.7313" y1="532.3771" x2="52.8803" y2="554.4729" gradientTransform="matrix(0.9188 0 0 -0.9188 -12.5778 358.1894)">
			<stop  offset="0" style="stop-color:#818181"/>
			<stop  offset="8.500097e-02" style="stop-color:#818181"/>
			<stop  offset="0.1278" style="stop-color:#F8F1F1"/>
			<stop  offset="0.2287" style="stop-color:#818181"/>
			<stop  offset="0.3041" style="stop-color:#818181"/>
			<stop  offset="0.3817" style="stop-color:#F8F1F1"/>
			<stop  offset="0.4497" style="stop-color:#818181"/>
			<stop  offset="0.5655" style="stop-color:#F8F1F4"/>
			<stop  offset="0.6268" style="stop-color:#818181"/>
			<stop  offset="0.787" style="stop-color:#F8F1F1"/>
			<stop  offset="1" style="stop-color:#F8F1F2"/>
		</linearGradient>
		<path id="path22-7" class="st3" d="M55.9-137.5c-2-1.9-4.6-3.2-7.4-3.6c-0.4-0.1-0.8,0.2-0.8,0.7c0,0.3,0,0.7,0,1
			s-0.2,0.6-0.5,0.6c-0.2,0-0.4,0-0.7,0c-0.8,0-0.9-1-0.8-1.5c1.7-6,2.1-9.6,2.1-12.2c0-2.8-0.1-5.6-1.4-9.3
			c-1.2-3.6-2.3-7-8.2-12.4c-0.4-0.4-0.8-0.5-1.3-0.6c-0.6,0-1.1-0.1-1.6-0.1c-2.4,0-4.8,0.4-7,1c-0.8,0.3-0.7,0.8-0.2,1.2
			c2.2,1.9,5.2,4.8,7.3,8.3c-1.3,0.1-2.3-0.6-3.2-1.4c-2.8-2.6-5.7-4.5-8-5.8c-0.4-0.2-0.8-0.3-1.2-0.1c-2.5,1.5-4.2,2.9-6.2,5.2
			c-0.3,0.4-0.1,0.7,0.2,0.9c2.2,1.2,5.6,3.4,8.8,6.2c-0.6,0.5-1.7,0.4-3.1-0.4c-2.8-1.5-5.6-2.3-7.6-2.9c-0.4-0.1-0.9,0-1.2,0.4
			c-1.3,2.3-2.3,5.1-2.7,7.9c-0.1,0.5,0.3,1,0.8,1.1c4.8,0.8,13.5,3.1,14.9,13.1c0.1,0.9-0.7,1.6-1.7,1.1c-1.5-0.7-2.9-1.4-4.4-2
			c-0.2-0.1-0.3-0.1-0.5-0.1c-2.3,0-4.5,0-6.9,0c-1,0-1.4,0.9-0.7,1.7c1.7,1.9,3.2,4,4.5,6.1c0.1,0.2,0.2,0.3,0.5,0.3c1,0,2,0,3,0
			c0.2,0,0.4,0,0.6-0.2c0.9-0.6,1.9-1.1,2.8-1.7c0.2-0.1,0.3-0.1,0.6-0.1c7.2,0,15,0,22.6,0c0.3,0,0.5,0.2,0.5,0.5
			c0,0.4,0,0.7,0,1.1c0,0.4,0.4,0.7,0.8,0.6c2.8-0.4,5.4-1.7,7.4-3.6C56.3-136.6,56.3-137.2,55.9-137.5"/>
		<path id="path24" class="st0" d="M39.1-140.7c-2.2,0-4-1.8-4-4s1.8-4,4-4c2.2,0,4,1.8,4,4S41.3-140.7,39.1-140.7z M53.9-136.9
			c-1.5-1.2-3.1-2.1-5.1-2.5c-0.2,0-0.3,0-0.3,0.2v0.1c0,0.5-0.5,1-1,1c-0.4,0-0.8,0-1.3,0c-1.1,0-2-0.9-1.6-2.3
			c4.6-16.4-0.5-26.5-7-32.2c-1.8-1.5-1.9-1.6-3.7-1.6c-1.4,0.1-3,0.2-4.4,0.6c-0.3,0.1-0.5,0.3-0.1,0.6c3.3,2.8,7.8,7.6,9.9,15.2
			c0.1,0.3-0.1,0.2-0.3,0.3c-1.9,0.1-2.5-1.1-3.1-1.8c-4.3-5.4-9.2-8.6-12.8-10.8c-0.4-0.2-0.4-0.2-0.7-0.1
			c-1.5,0.8-3.1,2.2-4.2,3.4c-0.2,0.3-0.2,0.4,0.1,0.5c3.3,1.8,8.3,5.2,12.9,11.1c0.3,0.4,0.3,0.5,0.1,0.6c-0.9,0.5-2.4,0.5-4-0.5
			c-4.4-2.8-8.9-4.7-12.4-5.7c-0.4-0.1-0.4-0.1-0.6,0.2c-0.9,1.8-1.8,4.1-2.1,6.2c0,0.3-0.1,0.3,0.2,0.3c9.7,2,15,7.3,15.6,14.3
			c0.1,1.2-1.3,2.4-2.7,2c-1.5-0.5-3-1-4.5-1.5c-0.2-0.1-0.3-0.1-0.5-0.1c-2.1,0-4.2,0-6.2,0c-0.3,0-0.4,0.2-0.2,0.5
			c1.6,2,2.5,3.1,3.6,5c0.1,0.2,0.2,0.3,0.5,0.3c0.8,0,1.5,0,2.3,0c0.3,0,0.6-0.1,0.8-0.2c0.8-0.5,1.7-0.9,2.5-1.4
			c0.3-0.2,0.5-0.2,0.8-0.2c7.5,0,15.6,0,23.2,0c0.5,0,1,0.6,1,1c0,0.1,0,0.1,0,0.2c0,0.2,0.1,0.2,0.3,0.2c2-0.4,3.6-1.3,5.1-2.6
			C54-136.7,54-136.8,53.9-136.9"/>
		<g id="g16866" transform="matrix(1.4237706,0,0,1.4237112,-24.958209,-18.7736)">
			
				<linearGradient id="path26-4_1_" gradientUnits="userSpaceOnUse" x1="105.7847" y1="62.3387" x2="108.185" y2="66.653" gradientTransform="matrix(1.0016 -0.1465 0.1465 1.0016 -70.592 -135.6265)">
				<stop  offset="0" style="stop-color:#818181"/>
				<stop  offset="0.1626" style="stop-color:#CCC4C4"/>
				<stop  offset="0.4961" style="stop-color:#818181"/>
				<stop  offset="1" style="stop-color:#818181"/>
			</linearGradient>
			<path id="path26-4" class="st4" d="M47.9-88.8c0.3,1.7-1,3.4-2.7,3.6c-1.7,0.3-3.4-1-3.6-2.7c-0.3-1.7,1-3.4,2.7-3.6
				C46.1-91.7,47.7-90.5,47.9-88.8"/>
			
				<linearGradient id="path26-4-9_1_" gradientUnits="userSpaceOnUse" x1="542.6613" y1="189.0542" x2="546.0078" y2="192.5369" gradientTransform="matrix(-0.9245 -0.4123 -0.4122 0.9245 625.5109 -39.5771)">
				<stop  offset="0" style="stop-color:#818181"/>
				<stop  offset="0.25" style="stop-color:#CCC4C4"/>
				<stop  offset="0.5" style="stop-color:#818181"/>
				<stop  offset="1" style="stop-color:#818181"/>
			</linearGradient>
			<path id="path26-4-9" class="st5" d="M45.3-91.5l-1,6.3c1.4,0.2,2.8-0.5,3.4-1.9c0.7-1.6,0-3.5-1.6-4.2
				C45.8-91.4,45.6-91.4,45.3-91.5L45.3-91.5z"/>
		</g>
		<path id="path28" class="st6" d="M42.6-144.7c0,1.7-1.4,3-3,3c-1.7,0-3-1.4-3-3c0-1.7,1.4-3,3-3C41.3-147.7,42.6-146.3,42.6-144.7
			"/>
	</g>
</g>
</svg>
