<?xml version="1.0" encoding="utf-8"?>
<!-- Generator: Adobe Illustrator 24.0.0, SVG Export Plug-In . SVG Version: 6.00 Build 0)  -->
<svg version="1.1" id="svg2656" xmlns:svg="http://www.w3.org/2000/svg"
	 xmlns="http://www.w3.org/2000/svg" xmlns:xlink="http://www.w3.org/1999/xlink" x="0px" y="0px" width="1024px" height="293px"
	 viewBox="0 0 1024 293" style="enable-background:new 0 0 1024 293;" xml:space="preserve">
<style type="text/css">
	.st0{fill:#818181;}
	.st1{fill-rule:evenodd;clip-rule:evenodd;fill:#818181;}
</style>
<g id="layer1" transform="translate(-295.26563,-510.48328)">
	<path id="path2568" class="st0" d="M994.7,600.9v74.2h14.2v-24.3c6.5,8.4,13.2,17.4,17.6,24.3h17.4c-7.8-12.6-16-23-21.7-29.2
		l20.1-22.3h-17l-16.4,19.3v-42H994.7z M801,603.7c-15.8,0-26.5,7.7-26.5,20.3c0,13.2,11.1,17.2,17.8,19.7c7.8,3,16.2,5,16.2,11.6
		c0,4.7-2,9.1-13.8,9.1c-8.2,0-17.6-3.5-18.8-4.1l-3.6,11.6c1.8,0.7,11.6,4.3,24.3,4.3c17.6,0,27.2-7.5,27.2-21.1
		c0-13.9-10.5-18.3-19.1-21.3c-7.5-2.6-15.6-4.3-15.6-10.5c0-4.9,3.6-8.1,12.4-8.1c7.5,0,15.5,2.3,18.2,3.2v-12.2
		C816.6,605.4,809.7,603.7,801,603.7z M1231,622.5c-16.1,0-24.5,11.4-24.5,26.8c0,16.2,9.6,27,26.1,27c6.8,0,12.1-0.7,17.8-2.2
		l-2.6-10.5c-3.1,0.9-8.4,1.8-13,1.8c-8,0-12.6-3.8-13.4-11.8h31.6c0.1-1.5,0.2-4,0.2-6.3C1253.1,631.2,1245.5,622.5,1231,622.5z
		 M864,622.7c-8.5,0-12.8,3.9-14.4,6.9l-0.4-5.9H836v71.9h14.2v-22.7c1.8,1.5,5.7,3.4,11.3,3.4c14.8,0,23.1-10.6,23.1-27.4
		C884.5,632.3,876.6,622.7,864,622.7z M916.7,622.7c-7.1,0-12.2,0.7-18.2,2.4v10.5c5.8-2,10.6-3,15.2-3c7.8,0,10.3,2.3,10.3,7.5v2
		c-1.5,0-4.1,0.1-5.5,0.2c-4.4,0.2-8.4,0.7-11.6,1.8c-7.8,2.5-12.4,7.8-12.4,16.6c0,11.2,7.4,15.6,16.2,15.6
		c6.8,0,11.9-2.9,13.8-4.7l0.4,3.8H938v-34.9C938,627.7,931.2,622.7,916.7,622.7z M1070.7,622.7c-7.1,0-12.2,0.7-18.2,2.4v10.5
		c5.8-2,10.4-3,15-3c7.8,0,10.5,2.3,10.5,7.5v2c-1.5,0-4.3,0.1-5.7,0.2c-4.4,0.2-8.3,0.7-11.6,1.8c-7.8,2.5-12.2,7.8-12.2,16.6
		c0,11.2,7.2,15.6,16,15.6c6.8,0,11.9-2.9,13.8-4.7l0.6,3.8h13.2v-34.9C1092,627.7,1085.2,622.7,1070.7,622.7z M1125.2,622.7
		c-11.9,0-20.9,5.2-20.9,16c0,8.4,5.6,12.1,13.8,14.8c7,2.3,13.2,3.2,13.2,7.1c0,3.2-2.6,4.7-9.5,4.7c-7.9,0-14.1-2.6-15.8-3.4
		l-3.8,10.3c2.9,1.3,10.3,3.9,20.3,3.9c13.5,0,23.1-5,23.1-16.6c0-9.6-6.8-12.9-14.8-15.4c-6.6-2-12.6-3.2-12.6-6.7
		c0-2.2,1.2-4.1,7.7-4.1c5.7,0,10.8,0.9,16.4,2.8v-11.3C1137.5,623.4,1132.2,622.7,1125.2,622.7z M1176.1,622.7
		c-11.9,0-20.9,5.2-20.9,16c0,8.4,5.4,12.1,13.6,14.8c7,2.3,13.4,3.2,13.4,7.1c0,3.2-2.6,4.7-9.5,4.7c-7.9,0-14.3-2.6-16-3.4
		l-3.6,10.3c2.9,1.3,10.2,3.9,20.1,3.9c13.5,0,23.3-5,23.3-16.6c0-9.6-6.8-12.9-14.8-15.4c-6.6-2-12.6-3.2-12.6-6.7
		c0-2.2,1-4.1,7.5-4.1c5.7,0,11,0.9,16.6,2.8v-11.3C1188.5,623.4,1183.1,622.7,1176.1,622.7z M1293.6,622.7
		c-6.7,0-12.4,2.9-15.2,6.9l-0.4-5.9h-13.4v51.5h14.2v-29.6c0-6,4.7-11.3,10.1-11.3c4.7,0,7.9,2.6,7.9,8.9v32h14.2v-35.3
		C1310.9,629.2,1304.8,622.7,1293.6,622.7z M980.7,623.1c-5.7,0-10.5,3.3-13.8,9.9l-0.4-9.3H953v51.5h14.2v-25.9
		c0-6,4.1-13.4,12.6-13.4c2.4,0,4.5,0.2,5.5,0.4v-12.6C984.8,623.4,982.7,623.1,980.7,623.1z M1230.6,632.1c5.3,0,8.3,3.5,8.3,10.7
		v1.6h-18C1221.3,636.5,1224.9,632.1,1230.6,632.1z M860.1,634.1c6.4,0,9.3,5.3,9.3,14.8c0,2.8-0.3,5.9-1,8.5
		c-1.2,4.4-4.1,7.7-9.9,7.7c-3.3,0-6.2-1.3-8.5-3.6l0.2-11.6C850.2,639.6,854.4,634.1,860.1,634.1z M918.3,651.5
		c1.1-0.1,2.3,0,3.6,0h2.2v11.3c-1.8,1.4-5.5,3.2-9.3,3.2c-4.8,0-6.5-3.2-6.5-6.3C908.2,655.1,910.8,652.1,918.3,651.5z
		 M1072.3,651.5c1.1-0.1,2.3,0,3.6,0h2.2v11.3c-1.7,1.4-5.7,3.2-9.5,3.2c-4.8,0-6.3-3.2-6.3-6.3
		C1062.2,655.1,1064.7,652.1,1072.3,651.5z M930.7,698.7c-4.5,0-8.3,3.4-8.3,7.7c0,4.2,3.8,7.7,8.3,7.7c4.6,0,8.5-3.5,8.5-7.7
		C939.2,702,935.4,698.7,930.7,698.7z M999.4,699.6v74.2h13.8v-29.6c0-6,4.8-11.3,10.1-11.3c4.7,0,7.5,2.6,7.5,8.9v32h14v-35.3
		c0-10.6-6-17.2-17-17.2c-6.9,0-12.1,2.6-14.6,6.1v-27.8H999.4z M715.6,703.6c7,23.5,17.6,51.3,26.5,70.3h11.3
		c8.9-19,19.5-46.8,26.5-70.3h-15c-3.9,13.1-9,29.6-16.8,50.1c-7.9-20.5-13.1-37.2-17-50.1H715.6z M803.8,721.2
		c-15.7,0-23.9,11.4-23.9,26.8c0,16.1,9.3,27,25.5,27c6.7,0,11.8-0.7,17.4-2.2l-2.6-10.5c-3,0.9-8.3,1.8-12.8,1.8
		c-7.9,0-12.2-3.8-13-11.8h31c0.1-1.5,0.2-4,0.2-6.3C825.5,729.9,818,721.2,803.8,721.2z M1079.6,721.2c-15.7,0-23.9,11.4-23.9,26.8
		c0,16.1,9.3,27,25.5,27c6.7,0,12-0.7,17.6-2.2l-2.6-10.5c-3,0.9-8.3,1.8-12.8,1.8c-7.9,0-12.2-3.8-13-11.8h31
		c0.1-1.5,0.2-4,0.2-6.3C1101.5,729.9,1093.8,721.2,1079.6,721.2z M892.6,721.4c-11.7,0-20.5,5.2-20.5,16c0,8.4,5.4,12.1,13.4,14.8
		c6.9,2.3,13,3.2,13,7.1c0,3.2-2.5,4.7-9.3,4.7c-7.8,0-14-2.7-15.6-3.4l-3.6,10.3c2.8,1.3,9.9,3.9,19.7,3.9c13.2,0,22.7-5,22.7-16.6
		c0-9.6-6.5-12.9-14.4-15.4c-6.5-2-12.4-3.2-12.4-6.7c0-2.2,1.1-4.1,7.5-4.1c5.6,0,10.7,0.9,16.2,2.8v-11.3
		C904.7,722.1,899.5,721.4,892.6,721.4z M1235.5,721.4c-6.6,0-12.3,2.9-15,6.9l-0.4-5.9h-13v51.5h14v-29.6c0-6,4.6-11.3,9.9-11.3
		c4.6,0,7.7,2.6,7.7,8.9v32h13.8v-35.3C1252.5,727.9,1246.5,721.4,1235.5,721.4z M1284.1,721.4c-11.2,0-20.7,9.1-20.7,26.5
		c0,18.6,9.1,25.7,20.7,25.7c6,0,10.1-2.3,13-5.7v5.1c0,8.1-4.2,11.8-14.2,11.8c-6.5,0-10.4-1.1-12.4-1.6l-2,10.1
		c2.1,0.6,8.3,2,17.6,2c8.1,0,14.6-1.9,19-6.1c3.7-3.5,5.9-8.7,5.9-17.4v-49.4h-13.2l-0.4,3.9C1295,724,1291.8,721.4,1284.1,721.4z
		 M975.9,721.6c-16.4,0-25.7,10.4-25.7,26.6c0,16.1,9.1,26.5,25.1,26.5c6.5,0,11.8-1.3,16-2.8l-3-10.5c-2,0.7-6.4,1.8-10.9,1.8
		c-8.1,0-12.6-5-12.6-15.2c0-11,4.9-15.2,14-15.2c3.9,0,9,0.9,10.1,1.4v-10.9C988.1,722.9,982.8,721.6,975.9,721.6z M862.4,721.8
		c-5.6,0-10.4,3.3-13.6,9.9l-0.4-9.3h-13.2v51.5h14V748c0-6.1,4.1-13.4,12.4-13.4c2.3,0,4.3,0.2,5.3,0.4v-12.6
		C866.4,722.1,864.5,721.8,862.4,721.8z M1138.2,721.8c-5.6,0-10.4,3.3-13.6,9.9l-0.4-9.3h-13v51.5h13.8V748
		c0-6.1,4.1-13.4,12.4-13.4c2.3,0,4.3,0.2,5.3,0.4v-12.6C1142.1,722.1,1140.2,721.8,1138.2,721.8z M918.7,722.3v8.9
		c1.8,0.1,5.1,0.4,6.3,0.6v42h13.8v-51.5H918.7z M1149.3,722.3v35.9c0,10.6,5.8,16.6,16.8,16.6c6.6,0,12.3-3.1,15-7.1l0.4,6.1h13.2
		v-51.5h-14V752c0,6-4.2,11.1-9.9,11.1c-4.7,0-7.7-1.8-7.7-7.9v-32.8H1149.3z M803.4,730.8c5.2,0,8.1,3.5,8.1,10.7v1.6h-17.6
		C794.3,735.2,797.9,730.8,803.4,730.8z M1079.2,730.8c5.3,0,8.3,3.5,8.3,10.7v1.6h-17.6C1070.3,735.2,1073.6,730.8,1079.2,730.8z
		 M1288.6,732.8c3.9,0,6.4,1.4,8.3,3.2v14c0,8.5-4.1,12.4-9.5,12.4c-7,0-9.3-5.8-9.3-14.6C1278.2,737.6,1282.8,732.8,1288.6,732.8z"
		/>
	<path id="path2612" class="st1" d="M398.3,518.8c-16.5,1.7-29.4,15.6-29.4,32.6c0,18.1,14.7,32.8,32.8,32.8
		c18.1,0,32.8-14.7,32.8-32.8c0-18.1-14.7-32.6-32.8-32.6C400.6,518.8,399.4,518.7,398.3,518.8z M336.4,603.7
		c-18.1,0-32.8,14.7-32.8,32.8v71.9H454v19.7H303.6v13c0,18.1,14.8,32.8,32.8,32.8H467c18,0,32.8-14.7,32.8-32.8v-71.9H349.4v-19.7
		h150.4v-13c0-18.1-14.5-32.8-32.6-32.8H336.4z M526.1,603.7v170.2h118l104.2-170.2H646.7l-31.6,51.7v-51.7H526.1z M543.2,620.9
		h54.7v95.3l58.4-95.3h61.4l-83.3,135.8h-91.2V620.9z"/>
</g>
</svg>
