<?xml version="1.0" encoding="utf-8"?>
<!-- Generator: Adobe Illustrator 26.0.1, SVG Export Plug-In . SVG Version: 6.00 Build 0)  -->
<svg version="1.1" id="Ebene_1" xmlns="http://www.w3.org/2000/svg" xmlns:xlink="http://www.w3.org/1999/xlink" x="0px" y="0px"
	 viewBox="0 0 67.5 15.1" style="enable-background:new 0 0 67.5 15.1;" xml:space="preserve">
<style type="text/css">
	.st0{fill:#818181;}
</style>
<g>
	<g>
		<path class="st0" d="M7.1,10.4c0,0.9-0.8,1.6-1.9,1.6c-1.2,0-1.9-0.8-1.9-1.7V10c0-0.2-0.2-0.4-0.4-0.4h-2c-0.2,0-0.4,0.2-0.4,0.4
			v0.3c0,2.4,2,4.3,4.7,4.3c2.8,0,4.8-1.6,4.8-4.2c0-2.3-1.5-3.4-3.6-4c-1.1-0.3-2.9-0.5-2.9-2C3.4,3.7,4.1,3,5.2,3
			c1.1,0,1.8,0.7,1.8,1.6C6.9,4.8,7.1,5,7.3,5h1.9c0.2,0,0.4-0.2,0.4-0.4c0-2.4-1.9-4.2-4.5-4.2c-2.6,0-4.5,1.8-4.5,4.1
			c0,2.2,1.5,3.3,3.6,3.9C5.3,8.9,7.1,9,7.1,10.4L7.1,10.4L7.1,10.4z M14.5,9.1c0-0.1,0.1-0.2,0.2-0.2h4c0.2,0,0.4-0.2,0.4-0.4v-2
			c0-0.2-0.2-0.4-0.4-0.4h-4c-0.1,0-0.2-0.1-0.2-0.2V3.6c0-0.1,0.1-0.2,0.2-0.2h4.6c0.2,0,0.4-0.2,0.4-0.4v-2c0-0.2-0.2-0.4-0.4-0.4
			h-7.1c-0.2,0-0.4,0.2-0.4,0.4v13c0,0.2,0.2,0.4,0.4,0.4h7.2c0.2,0,0.4-0.2,0.4-0.4v-2c0-0.2-0.2-0.4-0.4-0.4h-4.7
			c-0.1,0-0.2-0.1-0.2-0.2V9.1L14.5,9.1z M24.6,9.1c0-0.1,0.1-0.2,0.2-0.2h4c0.2,0,0.4-0.2,0.4-0.4v-2c0-0.2-0.2-0.4-0.4-0.4h-4
			c-0.1,0-0.2-0.1-0.2-0.2V3.6c0-0.1,0.1-0.2,0.2-0.2h4.6c0.2,0,0.4-0.2,0.4-0.4v-2c0-0.2-0.2-0.4-0.4-0.4h-7.1
			c-0.2,0-0.4,0.2-0.4,0.4v13c0,0.2,0.2,0.4,0.4,0.4h7.2c0.2,0,0.4-0.2,0.4-0.4v-2c0-0.2-0.2-0.4-0.4-0.4h-4.7
			c-0.1,0-0.2-0.1-0.2-0.2V9.1L24.6,9.1z M32.4,0.7c-0.2,0-0.4,0.2-0.4,0.4v13c0,0.2,0.2,0.4,0.4,0.4h2c0.2,0,0.4-0.2,0.4-0.4V9.1
			c0-0.1,0.1-0.2,0.2-0.2h1.8c2.3,0,4.1-1.8,4.1-4.1c0-2.3-1.9-4.1-4.1-4.1H32.4L32.4,0.7z M36.7,3.4c0.7,0,1.4,0.6,1.4,1.4
			c0,0.8-0.6,1.4-1.4,1.4h-1.8c-0.1,0-0.2-0.1-0.2-0.2V3.6c0-0.1,0.1-0.2,0.2-0.2H36.7L36.7,3.4z M45.1,9.1c0-0.1,0.1-0.2,0.2-0.2h4
			c0.2,0,0.4-0.2,0.4-0.4v-2c0-0.2-0.2-0.4-0.4-0.4h-4c-0.1,0-0.2-0.1-0.2-0.2V3.6c0-0.1,0.1-0.2,0.2-0.2h4.6c0.2,0,0.4-0.2,0.4-0.4
			v-2c0-0.2-0.2-0.4-0.4-0.4h-7.1c-0.2,0-0.4,0.2-0.4,0.4v13c0,0.2,0.2,0.4,0.4,0.4H50c0.2,0,0.4-0.2,0.4-0.4v-2
			c0-0.2-0.2-0.4-0.4-0.4h-4.7c-0.1,0-0.2-0.1-0.2-0.2V9.1L45.1,9.1z M66.7,11.6c0-0.2-0.2-0.4-0.4-0.4h-2.4c-0.2,0-0.4,0.2-0.4,0.4
			V14c0,0.2,0.2,0.4,0.4,0.4h2.4c0.2,0,0.4-0.2,0.4-0.4V11.6L66.7,11.6z M61.7,1.2c0.1-0.3-0.1-0.5-0.3-0.5h-2.4
			c-0.2,0-0.3,0.1-0.4,0.3c-0.7,1.9-1.4,3.6-2.8,5.4c-1.4,1.8-2.1,2.7-4,7.5c-0.1,0.3,0.1,0.5,0.3,0.5h2.4c0.2,0,0.4-0.1,0.4-0.3
			c1.3-3.3,1.5-4,2.9-5.8C59.3,6.6,60,5.5,61.7,1.2L61.7,1.2L61.7,1.2z M54.2,6c0.1,0.3,0.2,0.4,0.5,0c0.6-1,1.5-2.3,0.8-4.1L55.2,1
			c-0.1-0.3-0.2-0.3-0.4-0.3h-2.4c-0.3,0-0.4,0.3-0.3,0.5L54.2,6L54.2,6z M61.5,14.4c0.3,0,0.4-0.3,0.3-0.5L59.6,9
			c-0.1-0.3-0.2-0.4-0.5,0c-0.6,1-1.5,2.3-0.9,4l0.4,1.1c0.1,0.3,0.2,0.3,0.4,0.3H61.5L61.5,14.4z"/>
	</g>
</g>
</svg>
