<?xml version="1.0" encoding="utf-8"?>
<!-- Generator: Adobe Illustrator 24.0.0, SVG Export Plug-In . SVG Version: 6.00 Build 0)  -->
<svg version="1.1" id="svg6690" xmlns:svg="http://www.w3.org/2000/svg"
	 xmlns="http://www.w3.org/2000/svg" xmlns:xlink="http://www.w3.org/1999/xlink" x="0px" y="0px" width="1024px" height="452px"
	 viewBox="0 0 1024 452" style="enable-background:new 0 0 1024 452;" xml:space="preserve">
<style type="text/css">
	.st0{fill:#818181;}
</style>
<path id="path6593" class="st0" d="M1011.1,34V12.8H790.5l0,0c-0.1,0-0.3,0-0.4,0c-15.9,0-44.6,0-68.8,9.3c0,0,5.3,13.9,5.3,27.1
	c0,11.7-5.3,24.8-5.3,24.8s0,100.2,0,111.5c0,4.9,1.8,7.6,5.2,9.1c6.1,2.8,13.3,4.8,20.5,7.6c4.8,1.8,10.1-2.1,13.6-8.3
	c10.2-17.9,21-39.9,21-39.9s11.2-6,16.5-17.4c4.8-10.5,4.2-16.8,4.2-16.8c37.4,54.4,37.9,129,37.9,129s-41.4-9.5-62.6-14.4
	c-13.8-3.2-30.1-7.1-37.6-7.1c-9.8,0-18.1,6.3-18.4,15.3c-0.2,4.6,2.6,12.7,7.4,25.9c5.1,14,5.8,15.5,12.3,34.1H774l-7.2-28.8
	c25.5,8.3,35.1,20.7,62.7,28.8h181.6v-92.1c0,0-5.6-10.3-14-25.1h14v-21.3h-26.4c-3.2-5.4-6.6-11-10-16.6h36.4v-21.3h-49.9
	c-2.7-4.1-5.4-8-8-11.8c-1.1-1.6-2.3-3.2-3.4-4.8h61.2V88.5h-77.4c-4.7-5.8-9.4-11.4-14.2-16.6h91.6V50.6h-113
	c-7.7-6.8-15.2-12.4-22.5-16.6H1011.1z M1011.1,430.9v-46.1h-33.3v10.8H994v31.3c-1.4,1.8-5.5,3.7-10.6,3.7
	c-19.5,0-23.5-18.4-23.5-40.1c0-12,0-35.7,18.3-35.7c12.5,0,13.2,11.1,13.6,16.4h18.5c0-17.2-12.5-25.1-32.1-25.1
	c-27.8,0-36.3,19.2-36.3,45.7c0,26.4,11.7,47.3,40.1,47.3C994.4,439.2,1004.3,434.9,1011.1,430.9z M914.7,437.8v-90.1h-14v66.9h-0.3
	l-34.9-66.9h-18.7v90.1h14v-70.1h0.3l36.6,70.1H914.7z M817.3,407.1v-59.4h-17.1v59.4c0,14.1-1.8,23.5-15.7,23.5
	c-13.1,0-15.3-9.4-15.3-23.5v-59.4h-17.1v59.4c0,16.1,3.4,32.1,32.4,32.1C813.9,439.2,817.3,423.1,817.3,407.1z M707.8,372.5
	c0,13.2-8.6,16.3-20.8,16.3h-3.4v-31.6h3.4C697.6,357.2,707.8,358.1,707.8,372.5z M728.6,437.8l-5.1-23.9
	c-2.2-10.5-4-19.1-17.4-21.6v-0.3c8.1-2.1,18.8-6.9,18.8-20.9c0-20.5-17.9-23.5-37.9-23.5h-20.5v90.1h17.1v-39.4h5.4
	c13.5,0,16.1,6,19.2,22.5l3.3,17H728.6z M640.9,437.8v-10.8h-36.7v-31h33.7v-10.3h-33.7V358h35.5v-10.3h-52.6v90.1H640.9z
	 M556.5,437.8v-90.1h-17.1v37.7h-31.3v-37.7H491v90.1h17.1v-42.1h31.3v42.1H556.5z M469,372.2c0-15.8-10.3-26-31.6-26
	c-27.3,0-36.8,20.9-36.8,44.8c0,25.5,10.8,48.2,39.3,48.2c10.8,0,19.7-3.4,25.5-5.6v-14.1c-3.3,2.5-11,8.9-22.3,8.9
	c-24,0-24.4-29.8-24.4-40.2c0-12,2.6-33.3,17.8-33.3c11,0,13.2,10.3,13.2,17.4H469z M373.5,437.8v-90.1h-17.1v90.1H373.5z
	 M332,412.4c0-27.9-44-29-44-46.6c0-5.6,5.1-9.3,12.3-9.3c10.4,0,21.7,4.6,24.8,6.1v-14c-3.4-0.6-12.9-2.5-22.5-2.5
	c-19.5,0-30.4,8.7-30.4,23.2c0,28.5,42.7,28.1,42.7,48.5c0,8.5-8.4,11-14.1,11c-10.2,0-20.2-5.4-27.2-9.7v15.9
	c3.3,0.9,13.6,4,24.4,4C317.4,439.2,332,432,332,412.4z M231.9,372.5c0,13.2-8.6,16.3-20.8,16.3h-3.4v-31.6h3.4
	C221.7,357.2,231.9,358.1,231.9,372.5z M252.7,437.8l-5.1-23.9c-2.2-10.5-4-19.1-17.4-21.6v-0.3c8.1-2.1,18.8-6.9,18.8-20.9
	c0-20.5-17.9-23.5-37.9-23.5h-20.5v90.1h17.1v-39.4h5.4c13.5,0,16.1,6,19.2,22.5l3.3,17H252.7z M165.1,437.8v-10.8h-36.7v-31H162
	v-10.3h-33.7V358h35.5v-10.3h-52.6v90.1H165.1z M92.4,347.7H77.3l-23.4,69.5h-0.3l-23-69.5H12.9l30.7,90.1h17.6L92.4,347.7z
	 M412.3,12.8h-83.8l-58,161l-58-160.9l-83.7,0l115.9,289.8h51.6L412.3,12.8z M199.7,302.6L174,238.2H90.3V12.8H13v289.8H199.7z
	 M676.3,302.6H599V173.8l-51.5,128.8h-77.3l0-128.8l-51.5,128.8h-77.3l116-289.8h77.2v161l64.5-161h77.2V302.6"/>
</svg>
