<?xml version="1.0" encoding="utf-8"?>
<!-- Generator: Adobe Illustrator 26.0.1, SVG Export Plug-In . SVG Version: 6.00 Build 0)  -->
<svg version="1.1" id="Ebene_1" xmlns="http://www.w3.org/2000/svg" xmlns:xlink="http://www.w3.org/1999/xlink" x="0px" y="0px"
	 viewBox="0 0 181.1 69.8" style="enable-background:new 0 0 181.1 69.8;" xml:space="preserve">
<style type="text/css">
	.st0{fill-rule:evenodd;clip-rule:evenodd;fill:#818181;}
</style>
<g>
	<path class="st0" d="M2.3,45.7V1.1h19.9c0.1,0,0.1,0,0.2,0s0.2,0,0.2,0c0.1,0,0.2,0,0.2,0c4.8,0,11.9,0.3,16,4.8
		c4.2,4.7,4.6,12.8,4.6,17.4c0,19.1-9.9,22.5-22.9,22.4H2.3L2.3,45.7z M15.3,37.6h2.3h2c1.5-0.1,3-0.1,4.5-0.5
		c4.9-1.1,6.1-4.5,6.7-7.9c0.3-2.3,0.4-3.9,0.4-6.2s-0.1-4.6-0.5-6.9c-0.3-1.9-0.9-3.8-2.2-5.2c-2.3-2.5-6-2.5-8.5-2.5h-4.8v29.2
		H15.3z"/>
	<polygon class="st0" points="82.5,45.7 51.3,45.7 51.3,1.1 80.8,1.1 80.8,8.6 63.8,8.6 63.8,18.2 80.4,18.2 80.4,25.6 63.8,25.6 
		63.8,36.9 82.5,36.9 	"/>
	<path class="st0" d="M118.3,45.7H99.6L87.1,1.1h13.3l7,28.2c0.8,3.2,1,4.1,1.7,8c0.8-4.2,1.1-4.9,1.9-7.7l7.6-28.5h12.2L118.3,45.7
		L118.3,45.7z"/>
	<polygon class="st0" points="162.7,17.4 178,45.7 165.1,45.7 155,26.7 149.6,33.4 149.6,45.7 136.8,45.7 136.8,1.1 149.6,1.1 
		149.6,19.6 163.5,1.1 176.1,1.1 	"/>
	<path class="st0" d="M13.4,56.4h-3.1l-1.9,7.8c-0.2,0.9-0.3,1.1-0.5,2.1c-0.2-1.1-0.2-1.3-0.5-2.2l-1.9-7.7H2.3l3.4,12.2h4.2
		L13.4,56.4L13.4,56.4z"/>
	<polygon class="st0" points="23.8,66.7 18.9,66.7 18.9,63.2 23,63.2 23,61.3 18.9,61.3 18.9,58.3 23.3,58.3 23.3,56.4 15.8,56.4 
		15.8,68.6 23.8,68.6 	"/>
	<path class="st0" d="M36,65.5c-0.4-1.8-0.8-2.6-2.4-2.9c0.7-0.1,2.5-0.5,2.5-3.1c0-0.5,0-1.8-1.2-2.6c-0.9-0.6-2-0.6-2.8-0.6h-5.6
		v12.3h3.1v-5.2h0.9c0.5,0,1.2,0,1.7,0.6c0.3,0.4,0.5,1,0.7,1.8l0.1,0.5c0.4,1.7,0.4,1.8,0.8,2.2h3.3c-0.4-0.5-0.5-0.7-0.9-2.4
		L36,65.5L36,65.5z M29.6,58h1.1c1,0,1.8,0,2.2,0.9c0.1,0.3,0.2,0.6,0.2,0.9c0,1-0.4,1.4-0.6,1.6c-0.5,0.4-1.3,0.4-1.9,0.4h-0.9V58
		H29.6z"/>
	<path class="st0" d="M44.2,63.7c1.2,0.4,2.1,0.7,2.1,1.8c0,1-0.7,1.7-1.9,1.7c-0.7,0-1.2-0.3-1.5-0.5c-0.5-0.5-0.5-1.3-0.5-1.8h-3
		c0,1.1,0,3.2,3.1,3.8c0.5,0.1,1,0.2,1.9,0.2c1.1,0,3.5-0.1,4.4-2.2c0.3-0.6,0.4-1.2,0.4-1.8c0-2.6-2-3.2-3.5-3.7l-0.9-0.3
		c-1.1-0.4-2.1-0.7-2.1-1.7c0-0.8,0.7-1.4,1.8-1.4c0.5,0,1,0.2,1.2,0.4c0.4,0.4,0.5,1,0.5,1.5h2.7c0.1-1.3-0.3-3-2.8-3.5
		c-0.5-0.1-1-0.1-1.6-0.1c-0.9,0-4.8,0-4.8,3.7c0,2.4,1.9,3,3.7,3.6L44.2,63.7L44.2,63.7z"/>
	<polygon class="st0" points="52.3,56.4 55.5,56.4 55.5,68.6 52.3,68.6 	"/>
	<path class="st0" d="M66.2,64.5c-0.1,0.9-0.2,2.8-2.1,2.8c-2,0-2.2-2-2.2-4.4c0-3,0.4-5.1,2.4-5.1c1.5,0,2,1.2,1.9,2.8h3.1
		c0-1.4-0.1-4.4-4.9-4.4s-5.7,3-5.7,6.6c0,1.2,0,3.4,1.1,4.7c1.3,1.5,3.5,1.5,4.1,1.5c1.4,0,2.7-0.2,3.7-0.9
		c1.7-1.1,1.8-2.8,1.8-3.6H66.2L66.2,64.5z"/>
	<polygon class="st0" points="82.8,56.4 79.7,56.4 79.7,61.2 76,61.2 76,56.4 72.8,56.4 72.8,68.6 76,68.6 76,63.1 79.7,63.1 
		79.7,68.6 82.8,68.6 	"/>
	<polygon class="st0" points="95.4,66.7 90.5,66.7 90.5,63.2 94.5,63.2 94.5,61.3 90.5,61.3 90.5,58.3 94.9,58.3 94.9,56.4 
		87.3,56.4 87.3,68.6 95.4,68.6 	"/>
	<path class="st0" d="M108.5,65.5c-0.4-1.8-0.8-2.6-2.4-2.9c0.7-0.1,2.5-0.5,2.5-3.1c0-0.5,0-1.8-1.2-2.6c-0.9-0.6-2-0.6-2.8-0.6H99
		v12.3h3.1v-5.2h0.9c0.5,0,1.2,0,1.7,0.6c0.3,0.4,0.5,1,0.7,1.8l0.1,0.5c0.4,1.7,0.4,1.8,0.8,2.2h3.3c-0.4-0.5-0.5-0.7-0.9-2.4
		L108.5,65.5L108.5,65.5z M102.1,58h1.1c1,0,1.8,0,2.2,0.9c0.1,0.3,0.2,0.6,0.2,0.9c0,1-0.4,1.4-0.6,1.6c-0.5,0.4-1.2,0.4-1.9,0.4
		h-0.9L102.1,58L102.1,58z"/>
	<path class="st0" d="M119.9,56.4v7.7c0,1-0.1,1.8-0.4,2.3c-0.1,0.1-0.5,0.7-1.6,0.7c-0.6,0-1.3-0.2-1.6-0.8
		c-0.3-0.5-0.3-1.1-0.3-2.2v-7.7h-3.2v7.8c0,1.1,0,2.7,1.3,3.7c1,0.9,2.7,1,3.7,1c3.6,0,4.7-1.4,5.1-3.1c0.2-0.7,0.2-1.4,0.2-2v-7.4
		H119.9L119.9,56.4z"/>
	<path class="st0" d="M137.9,56.4h-2.7v6.3c0,0.9,0,1.3,0,2.3c-0.4-1.1-0.5-1.4-1.1-2.4l-3.1-6.1h-3.6v12.1h2.8l-0.1-6.9
		c0-0.7,0-0.9,0-1.6c0.4,0.9,0.4,1.1,0.8,1.8l3.4,6.7h3.6L137.9,56.4L137.9,56.4z"/>
	<path class="st0" d="M151.6,62.1h-4.9v1.7h2v1.1c0,0.6,0,1.3-0.6,1.8c-0.4,0.3-0.9,0.6-1.6,0.6c-2,0-2.4-1.8-2.4-4.5
		c0-0.6,0-1.2,0.1-1.9c0.1-1,0.3-3.2,2.3-3.2s2,2.1,2,2.6h3c0-0.7,0-2.3-1.5-3.3c-1.1-0.8-2.7-0.9-3.5-0.9c-4,0-5.7,2-5.7,6.6
		c0,1.3,0.1,3.5,1.2,4.8c0.3,0.3,1.2,1.4,3.5,1.4c0.8,0,1.7-0.1,2.4-0.5c0.4-0.2,0.6-0.4,0.9-0.7v0.9h2.9L151.6,62.1L151.6,62.1z"/>
	<polygon class="st0" points="163.9,66.7 159,66.7 159,63.2 163.1,63.2 163.1,61.3 159,61.3 159,58.3 163.4,58.3 163.4,56.4 
		155.9,56.4 155.9,68.6 163.9,68.6 	"/>
	<path class="st0" d="M178,56.4h-2.7v6.3c0,0.9,0,1.3,0,2.3c-0.4-1.1-0.5-1.4-1.1-2.4l-3.1-6.1h-3.6v12.1h2.8l-0.1-6.9
		c0-0.7,0-0.9,0-1.6c0.4,0.9,0.4,1.1,0.8,1.8l3.4,6.7h3.6L178,56.4L178,56.4z"/>
</g>
</svg>
