<?xml version="1.0" encoding="utf-8"?>
<!-- Generator: Adobe Illustrator 26.0.1, SVG Export Plug-In . SVG Version: 6.00 Build 0)  -->
<svg version="1.1" id="Ebene_1" xmlns="http://www.w3.org/2000/svg" xmlns:xlink="http://www.w3.org/1999/xlink" x="0px" y="0px"
	 viewBox="0 0 120.1 40" style="enable-background:new 0 0 120.1 40;" xml:space="preserve">
<style type="text/css">
	.st0{fill:#818181;}
	.st1{fill-rule:evenodd;clip-rule:evenodd;fill:#818181;}
</style>
<g>
	<g>
		<path class="st0" d="M96.1,17.8c-0.8,0.1-1.5,0.4-2.2,0.7c-1.3,0.6-2.5,1.4-3.5,2.4c-1,1-1.8,2.2-2.4,3.5
			c-0.6,1.4-0.9,2.8-0.9,4.3c0,1.5,0.3,3,0.9,4.3c0.6,1.3,1.4,2.5,2.4,3.5c1,1,2.2,1.8,3.5,2.4c1.4,0.6,2.8,0.9,4.3,0.9
			c1.5,0,3-0.3,4.3-0.9c1.3-0.6,2.5-1.4,3.5-2.4c1-1,1.8-2.2,2.4-3.5c0.6-1.4,0.9-2.8,0.9-4.3c0-1.3-0.2-2.5-0.6-3.7
			c-0.2,0-0.4,0-0.6,0c-1.8,0-3.6-0.4-5.3-1.1c-1.6-0.7-3.1-1.7-4.3-2.9C97.5,20,96.7,18.9,96.1,17.8z"/>
		<path class="st0" d="M98.8,15.1c0.4-1.2,0.6-2.5,0.6-3.7c0-1.5-0.3-3-0.9-4.3c-0.6-1.3-1.4-2.5-2.4-3.5c-1-1-2.2-1.8-3.5-2.4
			c-1.4-0.6-2.8-0.9-4.3-0.9c-1.5,0-3,0.3-4.3,0.9c-1.3,0.6-2.5,1.4-3.5,2.4c-1,1-1.8,2.2-2.4,3.5c-0.6,1.4-0.9,2.8-0.9,4.3
			c0,1.5,0.3,3,0.9,4.3c0.6,1.3,1.4,2.5,2.4,3.5c1,1,2.2,1.8,3.5,2.4c0.7,0.3,1.5,0.5,2.2,0.7c0.6-1.2,1.4-2.3,2.4-3.2
			c1.2-1.2,2.7-2.2,4.3-2.9c1.7-0.7,3.5-1.1,5.3-1.1C98.4,15.1,98.6,15.1,98.8,15.1z"/>
		<path class="st0" d="M99.7,4c0.2-0.2,0.3-0.3,0.5-0.5c1-1,2.2-1.8,3.5-2.4c1.4-0.6,2.8-0.9,4.3-0.9c1.5,0,3,0.3,4.3,0.9
			c1.3,0.6,2.5,1.4,3.5,2.4c1,1,1.8,2.2,2.4,3.5c0.6,1.4,0.9,2.8,0.9,4.3c0,1.5-0.3,3-0.9,4.3c-0.6,1.3-1.4,2.5-2.4,3.5
			c-1,1-2.2,1.8-3.5,2.4c-1.4,0.6-2.8,0.9-4.3,0.9c-1.5,0-3-0.3-4.3-0.9c-1.3-0.6-2.5-1.4-3.5-2.4c-0.2-0.2-0.3-0.3-0.5-0.5
			c0.4-0.7,0.8-1.3,1.1-2.1c0.7-1.7,1.1-3.5,1.1-5.3c0-1.8-0.4-3.6-1.1-5.3C100.5,5.3,100.2,4.7,99.7,4z"/>
	</g>
	<path class="st1" d="M65.7,29.4c-0.1-0.1-0.1-0.2-0.2-0.3l0,0l0,0c-0.4-0.6-1.1-1.1-2-1.5l0,0l0,0c-1-0.4-2.3-0.9-4.2-1.4l0,0l0,0
		c-3-0.8-5.1-1.8-6.4-3.1l0,0l0,0c-0.4-0.4-0.8-0.9-1.1-1.4l0,0l2.1-9.2c0.6-0.4,1.2-0.8,1.9-1.1l0,0l0,0c1.5-0.7,3.2-1,5.1-1l0,0
		l0,0c1.9,0,3.6,0.3,5.1,0.8l0,0l0,0c1.5,0.5,3,1.3,4.3,2.4l0,0l-2.1,3.1l0,0c-1.3-0.8-2.5-1.4-3.6-1.8l0,0l0,0
		c-1.1-0.4-2.3-0.6-3.6-0.6l0,0l0,0c-1.6,0-2.8,0.3-3.7,1l0,0l0,0c-0.9,0.7-1.4,1.5-1.4,2.7l0,0l0,0c0,1.1,0.4,2,1.3,2.6l0,0l0,0
		c0.9,0.6,2.4,1.2,4.7,1.8l0,0l0,0c3.1,0.8,5.4,1.8,6.9,3.2l0,0l0,0c1.1,1,1.9,2.3,2.2,3.8H65.7z M21.3,29.4l-3.4-14.7l0,0l0.6-3.7
		l0,0h3.4l3.8,18.5H21.3z M31.5,29.4l3-14.1l2.9,14.1h3.9l-4-18.5H32l-4.2,18.5H31.5z M47.8,29.4L52,10.9h-4.6l-3.8,18.5H47.8z
		 M5.4,29.4L5.4,29.4V14.6h-5v-3.8h5V8.2l0,0c0-2.4,0.8-4.3,2.3-5.8l0,0l0,0c1.5-1.5,3.7-2.2,6.4-2.2l0,0l0,0c1.3,0,2.4,0.1,3.4,0.3
		l0,0l0,0c1,0.2,2.1,0.6,3.2,1.1l0,0l-1.5,3.5l0,0c-1.6-0.7-3.2-1.1-4.9-1.1l0,0l0,0c-1.5,0-2.5,0.3-3.2,1l0,0l0,0
		c-0.6,0.7-1,1.7-1,3l0,0v2.7h6l-0.5,3.8h-5.5v14.7H5.4z"/>
</g>
</svg>
