<?xml version="1.0" encoding="utf-8"?>
<!-- Generator: Adobe Illustrator 27.0.1, SVG Export Plug-In . SVG Version: 6.00 Build 0)  -->
<svg version="1.1" id="Ebene_1" xmlns="http://www.w3.org/2000/svg" xmlns:xlink="http://www.w3.org/1999/xlink" x="0px" y="0px"
	 viewBox="0 0 120.4 66.3" style="enable-background:new 0 0 120.4 66.3;" xml:space="preserve">
<style type="text/css">
	.st0{fill:#FFFFFF;}
</style>
<path class="st0" d="M95.5,11.1v55.3H83.9L69.9,42.2c-1.9-3.5-5.5-6-9.8-6c-6.1,0-11,5-11,11s5,11,11,11c4.1,0,7.6-2.2,9.6-5.5
	l4.4,7.5c-3.5,3.7-8.4,5.9-13.9,5.9c-4.3,0-8.3-1.5-11.5-3.9c-4.6,2.5-9.9,3.9-15.5,3.9C14.8,66.3,0,51.5,0,33.2
	C0,15,14.9,0.3,32.8,0v0h25.8l-6.4,11.1H33.3c0,0-0.2,0-0.3,0c-12.2,0-22.1,9.9-22.1,22.1S20.8,55.3,33,55.3c3.2,0,6.2-0.7,8.9-1.9
	c-0.5-1.1-0.8-3.5-0.8-3.5c-0.1-0.9-0.2-1.9-0.2-2.9c0-10.7,8.7-19.3,19.4-19.3c7.3,0,13.8,4,17.1,10l7.1,11.8V11.1H58.6L65,0h55.4
	v11.1H95.5z"/>
</svg>
