<?xml version="1.0" encoding="utf-8"?>
<!-- Generator: Adobe Illustrator 27.0.1, SVG Export Plug-In . SVG Version: 6.00 Build 0)  -->
<svg version="1.1" id="Ebene_1" xmlns="http://www.w3.org/2000/svg" xmlns:xlink="http://www.w3.org/1999/xlink" x="0px" y="0px"
	 viewBox="0 0 196.5 196.5" style="enable-background:new 0 0 196.5 196.5;" xml:space="preserve">
<style type="text/css">
	.st0{fill:#FFFFFF;}
	.st1{fill:#009BEA;}
</style>
<circle class="st0" cx="98.2" cy="98.2" r="91.8"/>
<path class="st1" d="M98.3,2.5C45.4,2.5,2.5,45.4,2.5,98.3S45.4,194,98.3,194S194,151.2,194,98.3S151.2,2.5,98.3,2.5z M142.1,70.8
	v68.5h-14.5l-17.3-29.9c-2.4-4.4-6.9-7.4-12.2-7.4c-7.6,0-13.7,6.1-13.7,13.7s6.1,13.7,13.7,13.7c5.1,0,9.5-2.8,11.9-6.8l5.4,9.4
	c-4.4,4.5-10.5,7.4-17.2,7.4c-5.4,0-10.3-1.8-14.3-4.8c-5.7,3.1-12.3,4.8-19.2,4.8c-22.7,0-41-18.4-41-41.1
	c0-22.5,18.5-40.8,40.7-41.1v0h32l-7.9,13.7H64.9c0,0-0.3,0-0.4,0c-15.1,0-27.4,12.3-27.4,27.4c0,15.1,12.3,27.4,27.4,27.4
	c3.9,0,7.6-0.9,11-2.3c-0.6-1.3-1-4.4-1-4.4c-0.2-1.2-0.2-2.3-0.2-3.6c0-13.2,10.8-24,24.1-24c9,0,17.1,5,21.2,12.4l8.8,14.6V70.8
	H96.3l7.9-13.7h68.7v13.7H142.1z"/>
</svg>
